<svg width="283" height="71" viewBox="0 0 283 71" fill="none" xmlns="http://www.w3.org/2000/svg">
<path d="M23.13 45.26C23.13 45.82 22.71 46.52 21.87 47.36C21.6367 48.1067 21.2867 48.7133 20.82 49.18L20.4 49.25L19.63 50.58L18.37 50.79L17.04 51.63L16.34 52.89L15.57 52.75C15.0567 52.9833 14.6367 53.1233 14.31 53.17L13.89 53.8C13.75 53.7533 13.54 53.73 13.26 53.73C12.6533 53.73 12.07 54.15 11.51 54.99L10.53 54.15C10.3433 54.1967 10.0633 54.22 9.69 54.22C9.08333 54.22 8.57 54.1267 8.15 53.94H6.96L6.4 53.59C4.62667 53.31 3.50667 52.6333 3.04 51.56V51.35L2.2 50.93L1.78 49.74L0.94 49.18V48.13L0.1 45.05L0.24 42.53L0.52 41.41V39.94L0.87 38.82L0.8 38.33L1.29 37.49L1.15 37.63C1.15 37.21 1.26667 36.7667 1.5 36.3V35.95L1.29 34.27C1.29 33.4767 1.64 32.7767 2.34 32.17C2.38667 32.0767 2.41 31.9367 2.41 31.75C2.41 31.5633 2.31667 31.19 2.13 30.63C1.99 30.0233 1.92 29.6033 1.92 29.37C1.92 28.81 2.06 28.2267 2.34 27.62C2.71333 28.18 3.25 28.46 3.95 28.46H4.16C4.25333 28.2733 4.46333 28.0633 4.79 27.83C5.16333 26.6633 5.67667 25.6833 6.33 24.89L6.61 24.61C6.61 24.4233 6.75 23.8867 7.03 23H7.59L7.73 22.65L8.29 22.51C8.52333 22.1367 8.66333 21.9267 8.71 21.88C8.80333 21.7867 9.31667 21.4833 10.25 20.97C10.4367 20.6433 10.7167 20.34 11.09 20.06C11.2767 19.9667 11.51 19.8733 11.79 19.78L12.07 19.36C13.33 18.94 14.1233 18.73 14.45 18.73C14.8233 18.73 15.1733 18.8233 15.5 19.01L15.85 18.94L16.34 19.22C16.9 19.64 17.46 19.99 18.02 20.27L19.21 21.18V21.46C20.2833 22.3 20.82 23.49 20.82 25.03L20.61 25.73L20.82 28.04L20.19 28.46L19.49 30.28L18.16 31.75L18.09 32.87C16.5967 33.9433 15.22 34.8067 13.96 35.46C13.54 36.1133 12.8867 36.44 12 36.44H11.79L10.46 37.28H9.34L7.66 37.98L6.4 37.35H6.26C6.16667 37.7233 6.07333 38.2833 5.98 39.03L5.42 39.45L5.35 40.29L4.93 41.48C5.07 42.6 5.14 43.3233 5.14 43.65L4.86 43.86C4.86 44.4667 4.83667 44.91 4.79 45.19C4.79 45.2367 4.76667 45.3067 4.72 45.4C4.72 45.4933 4.72 45.5633 4.72 45.61C4.72 45.9833 4.90667 46.2867 5.28 46.52C5.42 47.08 5.65333 47.43 5.98 47.57L6.47 47.99L8.01 48.41V48.62L8.57 48.76L10.95 48.9L12.35 48.69L13.05 48.2L13.47 48.06L14.17 47.01L14.52 46.94L16.27 46.38C16.4567 46.0533 16.76 45.7733 17.18 45.54L17.39 45.19C18.3233 45.0033 18.86 44.5133 19 43.72C19.6533 43.0667 20.4933 42.74 21.52 42.74H21.8C22.6867 43.7667 23.13 44.6067 23.13 45.26ZM16.2 25.1C16.2 24.96 16.13 24.68 15.99 24.26L15.64 24.19L15.5 24.26C15.4533 24.26 15.36 24.26 15.22 24.26C15.1267 24.3067 15.0333 24.33 14.94 24.33C14.8933 24.33 14.8233 24.3067 14.73 24.26C14.6367 24.26 14.5667 24.26 14.52 24.26L13.82 24.75L13.19 24.82L12.84 24.96L11.65 26.5L10.88 27.06L9.76 29.02L9.13 29.44C8.99 30.2333 8.66333 30.91 8.15 31.47L7.87 31.96C8.38333 31.6333 8.96667 31.47 9.62 31.47L10.11 31.26L10.32 30.63L11.3 30.7L11.86 29.86H12.28L13.05 30.14L13.4 29.09H13.89V28.32L14.8 28.11L15.01 27.9L15.15 27.27L16.06 25.94C16.1533 25.7067 16.2 25.4267 16.2 25.1ZM46.9267 43.37C46.9267 43.8833 46.7401 44.3033 46.3667 44.63C45.9934 45.19 45.3867 45.7733 44.5467 46.38L43.8467 46.87L43.2167 47.71L42.5867 47.99L41.6067 48.62L40.9067 48.69L40.6267 48.97C39.6934 49.25 38.9701 49.7167 38.4567 50.37C38.1301 50.6033 37.8267 50.72 37.5467 50.72C37.3601 50.72 37.1967 50.6967 37.0567 50.65C36.2634 51.1167 35.2367 51.35 33.9767 51.35C32.9034 51.35 32.2034 51.2567 31.8767 51.07L30.6167 50.37L30.1967 49.67V49.46C30.1967 48.8533 29.9401 48.3633 29.4267 47.99L29.1467 46.59L28.5867 45.96L28.2367 43.37L28.1667 41.83L28.2367 40.71L28.3767 40.29C28.2367 40.01 28.1667 39.7067 28.1667 39.38C28.4001 37.42 28.5167 36.1833 28.5167 35.67L27.8867 34.41L28.5167 33.36L28.7267 31.61L28.5867 30.42L29.0067 29.37L28.5867 27.97L29.2167 26.99L29.2867 26.36V23.91L29.4967 23.42L29.4267 20.48L29.6367 17.47L29.3567 16.91L29.2867 14.81L29.4967 12.92L29.2867 12.22L29.7067 8.02C31.6667 7.55333 32.5301 7.32 32.2967 7.32C33.0434 7.32 33.6501 7.71666 34.1167 8.51L34.2567 9.07L35.3067 10.12L34.7467 11.59L34.8867 11.87C34.7934 12.7567 34.6767 13.34 34.5367 13.62L34.6767 15.09L35.0267 16.42L34.5367 17.89C34.5367 18.6833 34.4201 19.4067 34.1867 20.06C34.1867 20.2933 34.1401 20.6667 34.0467 21.18L33.9767 21.6L34.6067 22.37L34.3267 23.14C34.4201 23.5133 34.4667 23.77 34.4667 23.91C34.4667 24.19 34.3734 24.5633 34.1867 25.03L34.3267 25.66L33.9067 27.9V29.37L33.4167 30.84L33.6967 32.17L33.4167 35.25L33.6267 35.6L33.2767 37.21L33.1367 39.17C33.0434 39.45 32.9967 39.6133 32.9967 39.66C32.9967 40.4533 32.9734 41.1067 32.9267 41.62L33.2767 42.6L33.1367 43.65L33.5567 44.56L33.4867 44.91C33.7667 45.1433 34.0234 45.5167 34.2567 46.03H34.8867L35.7967 46.31L36.2167 45.75L36.8467 45.68C37.1267 45.5867 37.3367 45.54 37.4767 45.54H37.6867C38.1534 45.4467 38.5267 45.2133 38.8067 44.84L39.2267 44.63C39.5534 44.1167 40.0901 43.7667 40.8367 43.58C41.0701 43.3933 41.5134 43.02 42.1667 42.46C42.1667 41.8067 42.5634 41.3167 43.3567 40.99C44.0567 40.99 44.5234 40.8733 44.7567 40.64C45.6901 40.78 46.2734 41.0367 46.5067 41.41C46.7867 41.7367 46.9267 42.39 46.9267 43.37ZM62.3371 3.68C62.3371 4.24 61.9638 4.75333 61.2171 5.22V5.36C60.3304 6.43333 59.5604 7.04 58.9071 7.18L57.8571 8.44L57.1571 9.35L55.5471 9.77L54.8471 10.75L53.7271 11.31L51.9071 12.92L50.7871 11.87L50.9971 10.12L51.7671 8.86C51.8138 8.20666 52.1871 7.64666 52.8871 7.18V6.9L53.3071 6.62L53.3771 5.57L54.4971 5.29V4.66L55.3371 4.52C55.5238 3.58667 55.9204 2.91 56.5271 2.49L56.7371 2.35L57.1571 1.93L57.7171 0.249998C60.7971 0.996664 62.3371 2.14 62.3371 3.68ZM69.4771 40.78C69.4771 41.8533 69.2904 42.53 68.9171 42.81L68.5671 43.09L68.2171 44.07L67.0971 44.42C66.7704 45.1667 66.2804 45.75 65.6271 46.17L64.9971 46.38L64.0871 47.36L63.2471 47.57C62.9204 48.41 62.2438 48.8533 61.2171 48.9C61.1238 49.04 60.9138 49.32 60.5871 49.74C59.8871 50.2067 59.1638 50.4867 58.4171 50.58L58.0671 50.65L57.5771 51.28H56.1771L55.0571 52.12L52.1871 50.02L50.8571 47.29L50.7871 43.86L50.5071 43.02L51.3471 36.86L51.6271 36.58C51.4871 35.88 51.4171 35.2033 51.4171 34.55C51.4171 34.13 51.5571 33.2667 51.8371 31.96L52.1871 30.35C52.0938 30.07 51.9071 29.7667 51.6271 29.44L52.0471 28.11L52.1871 26.5L52.3271 26.29C52.1404 25.87 52.0238 25.4033 51.9771 24.89C52.0238 24.7967 52.0704 24.68 52.1171 24.54C52.1638 24.3533 52.1871 24.2133 52.1871 24.12C52.0471 23.7 51.9771 23.3033 51.9771 22.93C51.9771 21.81 52.6071 21.2967 53.8671 21.39L54.7071 21.46C55.2671 21.18 55.6171 21.04 55.7571 21.04C56.6904 21.04 57.3204 21.5533 57.6471 22.58V22.86C57.8338 23.42 57.9271 23.9567 57.9271 24.47C57.9271 24.89 57.8804 25.1933 57.7871 25.38L57.2971 28.88L57.7871 29.86C57.7871 30.7 57.5071 31.4467 56.9471 32.1L57.2271 32.94L56.3171 35.6C56.2238 36.7667 56.1071 37.6533 55.9671 38.26V40.01L55.5471 40.99L55.6171 41.69L55.4771 43.3L55.6171 44.56L56.6671 45.4L57.5071 45.26L57.6471 45.05L58.2071 45.12L59.1171 44.84L59.8871 44.07L60.1671 43.65L60.6571 43.58L60.7971 43.23L61.0071 42.95L61.4271 43.23L62.1271 42.53L62.5471 42.6L62.6871 42.11H62.8271L63.0371 41.55L63.6671 41.27L64.9971 40.64C66.0704 39.8933 67.1204 39.52 68.1471 39.52H68.4271C68.9404 39.8467 69.2904 40.2667 69.4771 40.78ZM104.836 9.21C104.836 10.1433 104.276 11.0767 103.156 12.01L102.596 11.66L101.476 12.29L100.076 9.56C99.9825 8.86 99.7959 8.27666 99.5159 7.81L99.0959 8.02L97.9059 7.39L97.4859 7.32L96.5759 7.88L95.1059 7.46L94.6159 7.67C94.1959 8.13666 93.7759 8.37 93.3559 8.37C93.1692 8.37 93.0059 8.34667 92.8659 8.3V9C92.3992 9.74666 91.8159 10.6567 91.1159 11.73C91.0692 12.1967 90.9059 13.06 90.6259 14.32L89.9959 14.74L89.7159 15.51L89.3659 16.14L89.7159 17.54L88.8759 18.8L88.5959 19.85L88.3159 20.41L88.3859 21.39L87.4059 23.91L87.5459 25.1C87.4992 25.2867 87.2192 25.94 86.7059 27.06L86.6359 27.34C87.1025 27.1533 87.4992 27.0367 87.8259 26.99L88.2459 27.06C88.3392 27.0133 88.5492 26.9433 88.8759 26.85H89.0859C89.0859 26.85 89.8792 26.8967 91.4659 26.99L91.6759 26.85C92.2359 26.7567 92.5625 26.71 92.6559 26.71C93.1225 26.71 93.6359 26.8267 94.1959 27.06C94.7559 26.92 95.2459 26.85 95.6659 26.85C96.0392 26.85 96.3659 26.92 96.6459 27.06H97.2759L98.1859 27.27C99.8659 27.3167 100.706 27.9933 100.706 29.3C100.706 29.6733 100.636 30.1167 100.496 30.63L97.3459 31.54L95.5259 31.26C95.0125 31.4 94.1492 31.5633 92.9359 31.75L92.5859 31.4C92.2592 31.7267 91.8159 31.89 91.2559 31.89H90.4859L88.5259 32.8L87.5459 32.31H87.1959C86.8225 32.7767 86.3559 33.08 85.7959 33.22L85.8659 33.64L85.5859 34.62L86.0059 35.81L85.0959 37.63L85.3059 40.43L84.9559 41.41L85.1659 42.39L84.4659 43.93L84.6759 44.77C84.7225 44.8167 84.7459 44.9333 84.7459 45.12C84.7459 45.1667 84.6525 45.68 84.4659 46.66C84.2792 47.5933 84.1859 48.5267 84.1859 49.46V50.09C84.2325 50.1367 84.4892 50.44 84.9559 51L84.4659 52.19L84.9559 53.59L84.6059 54.71L85.3759 58.14L85.5859 61.92L86.7059 63.32L86.0759 64.86C86.6359 65.84 86.9159 66.6333 86.9159 67.24V67.45C86.9159 67.5433 86.9392 67.66 86.9859 67.8C86.9859 67.9867 86.9859 68.1033 86.9859 68.15C86.9859 69.9233 85.9592 70.8567 83.9059 70.95L83.3459 69.83L82.5059 69.34L82.3659 68.08L80.9659 64.16V63.39C80.7792 62.55 80.6859 62.06 80.6859 61.92C80.6859 61.6867 80.7092 61.5233 80.7559 61.43L80.5459 60.24L80.7559 59.05L80.5459 58.28V56.74L79.8459 52.33L79.9859 52.19L79.8459 51.42L79.9859 50.44L79.4959 49.53L79.9159 48.76V45.12L80.2659 44.7V42.18L80.4759 41.62L80.2659 39.45L80.5459 38.61C80.6392 37.8167 80.9192 36.0433 81.3859 33.29H81.1059L80.1959 33.01H79.1459L77.1859 33.29L75.9959 33.01L73.9659 33.43L73.2659 33.29C73.0325 33.3367 72.7525 33.36 72.4259 33.36C70.3725 32.4267 69.2759 31.7033 69.1359 31.19L68.7859 30C69.3925 28.18 70.2325 27.27 71.3059 27.27C71.3525 27.27 72.1459 27.4333 73.6859 27.76L77.7459 27.9L79.7059 27.48L81.3859 27.55L82.0159 27.62L82.2259 26.71L82.3659 24.68L82.7159 23.84L82.5059 22.44C82.5059 21.9267 82.6925 21.4833 83.0659 21.11L82.9959 20.34L83.7659 19.5L84.1159 17.4L84.3959 17.05L84.1859 16.14C84.7459 15.4867 85.0259 14.95 85.0259 14.53C84.9792 14.25 84.9559 14.11 84.9559 14.11C84.9559 14.4833 85.3059 13.41 86.0059 10.89L86.4959 10.54L86.5659 9L86.7059 9.35V9.14C86.7059 8.34667 87.0325 7.76333 87.6859 7.39L88.1059 6.76L88.9459 4.73H89.0859C89.5992 4.73 89.8559 4.42667 89.8559 3.82V3.54L91.8159 2.84H92.3759C92.9825 2.65333 93.6125 2.56 94.2659 2.56H94.7559L95.1059 2.42L96.6459 2.07L98.4659 2.49C98.5592 2.53666 98.7459 2.60666 99.0259 2.7C99.4925 2.51333 99.8192 2.42 100.006 2.42C100.659 2.42 101.266 2.91 101.826 3.89L102.806 4.59L103.506 5.99L104.556 7.04L104.836 9V9.21ZM123.814 25.87C123.814 26.29 123.394 26.6867 122.554 27.06C122.367 27.2933 122.017 27.5033 121.504 27.69C120.85 27.97 120.384 28.2033 120.104 28.39L118.634 27.9C117.887 28.46 116.93 28.74 115.764 28.74L114.924 28.53L114.294 29.09H112.404L111.214 29.86C110.7 29.6733 110.21 29.58 109.744 29.58C109.604 29.6733 109.277 29.7667 108.764 29.86C108.53 29.86 108.274 29.79 107.994 29.65L107.784 32.31L107.854 34.27L107.644 36.72L107.784 39.38L107.994 40.64V41.62L108.974 43.72C108.834 43.86 108.764 44.0233 108.764 44.21C108.764 44.5367 109.277 44.7933 110.304 44.98L110.444 45.82L110.934 46.03L111.774 46.59L112.334 47.01C112.8 46.9167 113.127 46.87 113.314 46.87C113.734 46.87 114.154 46.94 114.574 47.08C114.76 46.9867 115.157 46.66 115.764 46.1C116.184 45.7267 116.58 45.54 116.954 45.54C117 45.54 117.07 45.54 117.164 45.54C117.257 45.5867 117.327 45.61 117.374 45.61C117.794 44.7233 118.54 44.14 119.614 43.86C120.594 43.86 121.41 44.1633 122.064 44.77V45.26C122.064 46.8467 121.504 47.85 120.384 48.27C119.964 49.25 119.077 49.88 117.724 50.16L116.884 50.93H115.974L114.364 51.35C113.99 51.4433 113.454 51.49 112.754 51.49C112.38 51.49 111.984 51.3967 111.564 51.21H110.654L108.204 49.88L107.574 49.67L106.104 47.71L105.264 46.8L103.724 43.3L103.164 40.01L103.304 39.17L102.744 38.4L103.094 37.42L102.744 35.88L103.234 35.39L103.374 34.48L103.164 33.64L103.304 32.38L103.024 31.26L103.374 30.91V29.79L102.884 29.58L101.554 29.86L100.294 28.95H100.084C98.6835 28.95 97.9835 28.2033 97.9835 26.71V26.5L97.1435 25.17L98.4735 23.91L100.224 24.19L101.134 24.05L102.464 24.4H103.934V23L103.024 21.04L103.934 20.55L103.584 19.5L103.654 17.33L103.094 16.42C102.767 15.9067 102.604 15.44 102.604 15.02C102.604 14.5067 102.72 14.0867 102.954 13.76L103.164 12.78L103.724 12.22C104.984 11.9867 105.824 11.87 106.244 11.87C107.737 11.87 108.554 12.5467 108.694 13.9L108.484 14.25C108.764 14.67 108.904 15.0667 108.904 15.44C108.904 15.4867 108.88 15.6033 108.834 15.79L108.694 16.21L108.624 16.7L108.904 17.61L108.834 17.96L108.974 18.94L108.344 19.78L108.694 21.18L108.414 22.86L108.974 23.49L108.414 24.75L110.584 24.47L114.434 24.82L117.514 24.33L118.564 24.4L118.914 24.33H121.644C123.09 24.33 123.814 24.8433 123.814 25.87ZM153.393 24.96L152.833 27.27L150.243 27.62L148.843 28.53L147.933 28.11L146.953 28.67L145.903 29.09L145.203 29.58V29.86L143.733 30.56L142.753 31.82H142.263C141.516 32.6133 140.98 33.1033 140.653 33.29L139.673 34.9L139.323 35.04C139.183 35.4133 139.02 35.9733 138.833 36.72L137.853 37.07L137.433 37.91L136.873 38.61L136.733 39.66L136.173 39.87V40.92L135.963 41.13C136.103 41.3633 136.266 41.62 136.453 41.9L135.403 42.32L135.263 43.23L134.563 44.42L134.983 45.33L134.073 46.59C134.166 47.0567 134.213 47.3833 134.213 47.57C134.213 47.6167 134.213 47.71 134.213 47.85C134.166 47.99 134.143 48.1067 134.143 48.2L134.283 48.83L135.473 50.09L134.563 51.7L133.723 52.33L131.763 53.31L129.173 52.26V50.65L128.893 50.02L129.103 48.97C129.01 48.2233 128.963 47.6633 128.963 47.29C128.963 47.15 128.986 46.9633 129.033 46.73C129.033 46.4967 129.033 46.3333 129.033 46.24L128.963 45.54C128.636 45.2133 128.473 44.84 128.473 44.42C128.473 44.0467 128.636 43.6267 128.963 43.16C128.963 42.9267 128.916 42.2267 128.823 41.06L129.033 40.85L128.823 39.94L128.963 39.1L128.823 38.61L129.033 37L128.613 36.3L128.893 35.53L128.613 34.62C128.66 34.34 128.683 33.9667 128.683 33.5C128.683 32.8 128.59 32.3333 128.403 32.1L128.683 31.68L128.403 30.42L127.773 29.51L128.123 28.39L127.843 27.97L127.563 26.29V25.73C127.33 25.45 127.213 25.1 127.213 24.68C127.213 23.7467 128.24 22.9533 130.293 22.3L132.043 22.65L132.393 23.98L133.093 24.89L132.883 26.78C133.023 27.7133 133.186 28.74 133.373 29.86L133.583 30.98C133.63 31.0733 133.676 31.33 133.723 31.75C133.723 32.03 133.606 32.3333 133.373 32.66L133.583 34.06L133.443 35.6L133.163 36.3L133.373 36.58L133.513 37.28C133.793 36.9533 133.956 36.6033 134.003 36.23L134.283 35.18C134.423 34.9 134.633 34.69 134.913 34.55L135.193 33.5L136.173 32.94L136.313 32.1L137.083 31.26L137.643 30.21C138.25 29.5567 138.833 29.1367 139.393 28.95L139.533 28.74L140.163 27.76L140.863 27.62L141.073 27.41L141.353 26.99L142.123 26.57L142.543 26.08L142.963 26.15L143.523 25.87L143.803 25.45L144.643 25.03L145.833 24.26L147.513 23.7C148.166 23.6067 148.516 23.56 148.563 23.56C148.563 23.6067 148.563 23.63 148.563 23.63C148.516 23.63 148.493 23.6533 148.493 23.7H148.563C148.75 23.7 149.03 23.6067 149.403 23.42C149.636 23.2333 149.963 23.14 150.383 23.14C150.57 23.14 150.896 23.1867 151.363 23.28C152.576 23.3267 153.253 23.8867 153.393 24.96ZM181.997 22.65L181.297 23.56L181.857 25.24L180.947 26.29L180.597 27.76L180.387 28.11L180.527 28.46C180.527 29.1133 180.363 29.6033 180.037 29.93L179.897 30.14V30.42C180.037 30.7467 180.107 31.05 180.107 31.33C180.107 31.5633 180.083 31.7267 180.037 31.82L180.107 32.1L179.827 32.87L180.037 33.71L179.477 34.27L179.687 35.25L180.107 35.74L179.477 36.3V37.42L178.987 38.54L179.337 39.66L178.917 40.22L179.617 40.71L178.637 42.32L178.567 42.53L179.267 42.67L178.777 44.28V44.56C178.777 44.8867 178.753 45.1433 178.707 45.33L178.777 45.54L179.897 45.68L180.807 47.08L180.317 48.13L181.087 48.06C181.367 48.62 181.53 49.11 181.577 49.53L180.527 50.58C180.2 50.9067 179.733 51.2333 179.127 51.56L177.937 52.19L177.587 51.84L176.887 52.26L174.717 49.74V48.55C174.437 47.6167 174.297 46.7533 174.297 45.96V45.54L173.877 41.41L174.437 38.47L174.017 36.79L172.827 38.75L172.197 40.57L171.637 40.85L170.657 42.39L168.907 44L168.417 44.84L166.877 46.17L166.527 47.08L164.287 48.48L161.907 51.14L160.577 51.42L159.667 52.12C158.5 52.0733 157.613 51.63 157.007 50.79C154.907 49.7633 153.81 48.2933 153.717 46.38L154.067 46.17L153.997 45.75L153.927 44.91L153.507 44L153.927 43.02L154.067 41.55L154.557 39.24C154.557 39.1933 154.557 39.1 154.557 38.96C154.51 38.8667 154.487 38.7733 154.487 38.68C154.487 38.4933 154.533 38.26 154.627 37.98C154.58 37.8867 154.557 37.7 154.557 37.42C154.557 37.0933 154.697 36.5567 154.977 35.81L155.467 35.6C155.187 35.3667 155.047 35.11 155.047 34.83C155.047 34.6433 155.07 34.5033 155.117 34.41C155.07 34.27 155.047 34.1067 155.047 33.92C155.047 33.36 155.327 32.94 155.887 32.66C156.027 32.1933 156.283 31.7267 156.657 31.26L156.307 30.7L157.147 29.65V29.37C157.147 28.4833 157.45 27.6667 158.057 26.92L157.987 25.66L158.267 25.38C158.267 25.3333 158.267 25.2633 158.267 25.17C158.22 25.0767 158.197 25.0067 158.197 24.96C158.197 24.68 158.29 24.4467 158.477 24.26V23.84C158.663 23.3733 159.153 22.6733 159.947 21.74C160.74 20.8067 161.323 19.99 161.697 19.29L162.047 19.64L162.817 19.29L163.167 19.15L165.477 18.1L170.867 18.38V18.87L172.547 19.22C173.62 19.22 174.32 19.57 174.647 20.27C174.647 20.13 174.67 19.9667 174.717 19.78C174.717 19.64 174.717 19.5467 174.717 19.5L176.187 20.83L177.517 21.11L180.037 20.48L180.947 22.23L181.997 22.65ZM175.347 26.29L175.067 25.8L174.507 25.66L172.337 23.91L170.937 23.7H169.817L169.677 23.56L169.117 23.77L168.487 23.42H166.667L166.877 23.7L165.267 24.26L164.987 24.61L164.777 24.68C163.937 25.38 163.353 25.9633 163.027 26.43L162.537 28.11L162.257 28.74L162.957 29.72L161.767 30.63L161.907 30.91C161.393 31.7967 161.137 32.66 161.137 33.5L160.577 34.2V35.46L160.017 36.09L159.877 36.72L159.667 36.86V37.84L159.457 38.19C159.457 38.75 159.41 39.1933 159.317 39.52L159.457 39.87L158.827 41.2L159.107 41.62L158.617 42.32L159.107 43.65L158.337 44.63L158.477 45.96V46.17L158.757 46.31L159.107 46.24C159.34 46.0067 159.573 45.7967 159.807 45.61L159.667 45.05L160.647 44.91L160.857 44.42L164.987 41.06L165.407 40.92L165.897 39.73C166.177 39.6367 166.573 39.45 167.087 39.17L167.507 38.05H168.067L167.857 36.86L168.837 36.72C168.93 36.5333 169.07 36.3 169.257 36.02C169.49 35.74 169.723 35.4833 169.957 35.25L173.527 30.49L174.087 29.44L174.017 29.16L174.507 28.39L174.647 27.62L175.277 27.06L175.347 26.29ZM222.852 45.96L222.012 48.9L221.452 49.74C220.705 50.86 219.982 51.42 219.282 51.42C218.722 51.42 217.975 51.0233 217.042 50.23L215.642 48.2L215.012 46.94L214.732 45.68L214.102 43.58V40.5L213.892 37.84L214.102 36.37L213.962 35.95L212.212 38.4H212.002L211.932 38.61L210.742 40.5L208.782 42.6L207.312 44.63L205.772 46.1C205.352 46.8467 204.862 47.5 204.302 48.06L202.902 49.04L202.062 50.16L200.522 50.65L199.892 51.42L198.352 51.7L197.092 52.47L196.882 52.4L196.742 52.75L194.572 52.47L191.982 50.65C191.282 49.8567 190.839 48.9933 190.652 48.06C190.745 48.0133 190.839 47.9433 190.932 47.85C191.025 47.71 191.095 47.6167 191.142 47.57C191.095 47.5233 190.839 47.4067 190.372 47.22L189.742 45.82L190.092 45.33L189.742 44.49L190.092 43.51L189.952 42.25L190.442 40.22V38.05L190.932 37.42V35.95L191.422 35.04L191.562 33.99L191.702 33.85V32.94L192.402 31.82L192.542 30.84L192.962 30.14L193.172 29.72L193.452 28.04L193.942 26.57L194.292 26.22L194.432 25.31L195.342 24.33C195.435 24.0967 195.645 23.6067 195.972 22.86L197.722 22.09L198.842 20.9L202.062 19.99C202.575 19.99 202.972 19.9667 203.252 19.92L203.742 20.2L203.882 19.64L205.492 19.5L206.052 19.71L206.542 19.64L206.962 19.99L208.292 20.06L208.572 19.85L208.922 20.13L209.622 20.2V20.69L209.902 20.9L211.302 21.18L212.352 22.37L213.752 23.42L214.102 24.12L214.172 24.19L214.452 23.21L214.872 22.3L214.732 20.69L215.012 17.75L214.592 16.63L215.152 15.79L214.872 15.02L215.082 13.06L214.872 11.38L214.242 10.89L215.222 9.77V9C215.222 8.20666 214.919 7.34333 214.312 6.41H214.732L215.502 5.29C216.202 5.15 216.832 5.08 217.392 5.08C218.045 5.08 218.582 5.22 219.002 5.5C219.749 5.73333 220.122 6.85333 220.122 8.86H219.772L219.702 9.14L220.332 9.7L219.912 10.82L220.542 12.15L220.192 12.57C220.332 12.8967 220.402 13.2233 220.402 13.55C220.402 13.8767 220.332 14.2267 220.192 14.6L220.542 15.02C220.635 15.2067 220.682 15.51 220.682 15.93C220.682 16.4433 220.565 16.91 220.332 17.33C220.099 20.27 219.889 22.09 219.702 22.79C219.749 22.93 219.772 23.14 219.772 23.42C219.772 23.7933 219.702 24.19 219.562 24.61V25.03C219.562 25.59 219.469 26.22 219.282 26.92L219.072 29.02L218.722 29.58L218.932 30.21L218.582 31.26L218.932 32.17L218.372 34.34L218.722 35.95L218.512 36.86L218.652 38.26C218.792 38.5867 218.862 38.89 218.862 39.17C218.862 39.4033 218.839 39.59 218.792 39.73L219.212 40.15L218.652 41.55L219.212 43.02L219.002 43.44L219.212 43.86L219.002 44.28L219.212 44.49L219.842 45.05L221.032 45.19L222.852 45.96ZM212.422 28.88L212.142 28.74C211.815 28.5533 211.512 28.25 211.232 27.83C210.999 27.41 210.765 26.99 210.532 26.57C210.065 26.43 209.669 26.1267 209.342 25.66H208.922L207.662 24.89L206.052 24.54L204.512 24.75L202.902 25.17L202.412 24.75L201.852 24.96V25.24L201.222 25.38C200.802 26.1267 200.149 26.78 199.262 27.34L198.702 28.53L198.142 28.95L197.652 30.07L197.442 32.38L196.812 32.94V34.2L196.112 34.69L196.252 36.37L195.062 38.68L194.852 39.8L194.712 41.62L195.132 42.39L194.642 43.16L195.062 43.65L194.362 44.91L194.712 45.54L194.992 46.38L195.412 46.66H195.902L196.532 46.1L197.092 46.17L198.282 45.68L198.422 45.26L199.752 44.77L199.892 44.35L200.732 43.86V43.72L202.482 41.9L203.322 41.55L203.742 40.64L204.652 40.5L205.772 39.24L205.562 39.1L206.052 38.61L206.752 37.14L207.382 36.51L207.732 34.97L208.852 34.62L209.622 33.5L209.902 33.29V32.03L210.952 31.54L212.422 28.88ZM251.929 45.26C251.929 45.82 251.509 46.52 250.669 47.36C250.435 48.1067 250.085 48.7133 249.619 49.18L249.199 49.25L248.429 50.58L247.169 50.79L245.839 51.63L245.139 52.89L244.369 52.75C243.855 52.9833 243.435 53.1233 243.109 53.17L242.689 53.8C242.549 53.7533 242.339 53.73 242.059 53.73C241.452 53.73 240.869 54.15 240.309 54.99L239.329 54.15C239.142 54.1967 238.862 54.22 238.489 54.22C237.882 54.22 237.369 54.1267 236.949 53.94H235.759L235.199 53.59C233.425 53.31 232.305 52.6333 231.839 51.56V51.35L230.999 50.93L230.579 49.74L229.739 49.18V48.13L228.899 45.05L229.039 42.53L229.319 41.41V39.94L229.669 38.82L229.599 38.33L230.089 37.49L229.949 37.63C229.949 37.21 230.065 36.7667 230.299 36.3V35.95L230.089 34.27C230.089 33.4767 230.439 32.7767 231.139 32.17C231.185 32.0767 231.209 31.9367 231.209 31.75C231.209 31.5633 231.115 31.19 230.929 30.63C230.789 30.0233 230.719 29.6033 230.719 29.37C230.719 28.81 230.859 28.2267 231.139 27.62C231.512 28.18 232.049 28.46 232.749 28.46H232.959C233.052 28.2733 233.262 28.0633 233.589 27.83C233.962 26.6633 234.475 25.6833 235.129 24.89L235.409 24.61C235.409 24.4233 235.549 23.8867 235.829 23H236.389L236.529 22.65L237.089 22.51C237.322 22.1367 237.462 21.9267 237.509 21.88C237.602 21.7867 238.115 21.4833 239.049 20.97C239.235 20.6433 239.515 20.34 239.889 20.06C240.075 19.9667 240.309 19.8733 240.589 19.78L240.869 19.36C242.129 18.94 242.922 18.73 243.249 18.73C243.622 18.73 243.972 18.8233 244.299 19.01L244.649 18.94L245.139 19.22C245.699 19.64 246.259 19.99 246.819 20.27L248.009 21.18V21.46C249.082 22.3 249.619 23.49 249.619 25.03L249.409 25.73L249.619 28.04L248.989 28.46L248.289 30.28L246.959 31.75L246.889 32.87C245.395 33.9433 244.019 34.8067 242.759 35.46C242.339 36.1133 241.685 36.44 240.799 36.44H240.589L239.259 37.28H238.139L236.459 37.98L235.199 37.35H235.059C234.965 37.7233 234.872 38.2833 234.779 39.03L234.219 39.45L234.149 40.29L233.729 41.48C233.869 42.6 233.939 43.3233 233.939 43.65L233.659 43.86C233.659 44.4667 233.635 44.91 233.589 45.19C233.589 45.2367 233.565 45.3067 233.519 45.4C233.519 45.4933 233.519 45.5633 233.519 45.61C233.519 45.9833 233.705 46.2867 234.079 46.52C234.219 47.08 234.452 47.43 234.779 47.57L235.269 47.99L236.809 48.41V48.62L237.369 48.76L239.749 48.9L241.149 48.69L241.849 48.2L242.269 48.06L242.969 47.01L243.319 46.94L245.069 46.38C245.255 46.0533 245.559 45.7733 245.979 45.54L246.189 45.19C247.122 45.0033 247.659 44.5133 247.799 43.72C248.452 43.0667 249.292 42.74 250.319 42.74H250.599C251.485 43.7667 251.929 44.6067 251.929 45.26ZM244.999 25.1C244.999 24.96 244.929 24.68 244.789 24.26L244.439 24.19L244.299 24.26C244.252 24.26 244.159 24.26 244.019 24.26C243.925 24.3067 243.832 24.33 243.739 24.33C243.692 24.33 243.622 24.3067 243.529 24.26C243.435 24.26 243.365 24.26 243.319 24.26L242.619 24.75L241.989 24.82L241.639 24.96L240.449 26.5L239.679 27.06L238.559 29.02L237.929 29.44C237.789 30.2333 237.462 30.91 236.949 31.47L236.669 31.96C237.182 31.6333 237.765 31.47 238.419 31.47L238.909 31.26L239.119 30.63L240.099 30.7L240.659 29.86H241.079L241.849 30.14L242.199 29.09H242.689V28.32L243.599 28.11L243.809 27.9L243.949 27.27L244.859 25.94C244.952 25.7067 244.999 25.4267 244.999 25.1ZM282.446 45.26L281.606 46.24L280.836 48.06L280.276 48.48L279.786 49.46L278.386 49.6L277.476 50.51H276.076L275.236 51.21L274.466 51L273.556 51.21V51.77L270.966 51.56L269.846 51.63L269.006 52.05L268.306 51.63C268.772 51.5833 269.146 51.56 269.426 51.56C269.052 51.6067 267.932 51.7 266.066 51.84L265.856 51.77L265.296 51.7L264.386 52.19C264.106 52.0033 263.592 51.7933 262.846 51.56C261.819 51.4667 261.142 51.42 260.816 51.42H260.256C259.929 51.3733 259.579 51.35 259.206 51.35C258.832 51.35 258.459 51.4433 258.086 51.63L257.106 51L256.546 50.86C256.406 50.86 256.149 50.79 255.776 50.65C254.049 50.4633 253.186 49.0167 253.186 46.31V45.68L254.516 44.7L256.196 44.07L257.456 44.7H258.436V44.91C258.902 45.0967 259.276 45.47 259.556 46.03L260.116 46.1V47.01L261.026 47.22L261.236 47.36L270.196 46.8L272.366 46.45H272.576L272.716 46.1L273.696 45.96L273.836 45.75C274.816 45.61 275.726 45.33 276.566 44.91L276.636 44.56C276.589 44.5133 276.496 44.35 276.356 44.07L276.006 44.14L275.096 43.44H274.466L274.116 42.95L274.326 42.67L273.556 42.81L272.996 42.18C272.856 42.2267 272.622 42.25 272.296 42.25C271.689 42.25 271.082 42.1333 270.476 41.9H269.846L269.356 41.69L268.376 42.04L267.816 41.41H267.606L266.626 40.64L264.456 39.8L263.756 39.24L261.096 38.75L260.816 38.26L258.856 37L257.806 34.69L256.966 33.5L256.686 29.86L256.966 29.44C257.059 28.3667 257.432 27.4333 258.086 26.64C258.786 26.2667 259.136 25.73 259.136 25.03L260.186 24.82C260.372 24.4467 260.746 24.0967 261.306 23.77L262.356 22.93L266.766 21.25L267.536 21.04L268.936 20.9L271.246 20.27L275.656 20.55L275.796 20.9C276.216 21.04 276.682 21.4133 277.196 22.02V22.37L278.316 23.07L277.826 24.75L277.686 25.38C277.406 26.5467 276.752 27.13 275.726 27.13C274.886 27.13 274.256 26.7333 273.836 25.94V25.73L272.996 25.66L272.016 25.94L271.106 25.31L270.616 25.66C270.009 25.66 269.449 25.8467 268.936 26.22C268.236 26.22 267.559 26.5 266.906 27.06H265.996L265.366 27.55L264.386 27.76L264.246 27.9L263.826 28.11L263.196 28.74L262.986 28.81L262.356 29.79L261.586 30.21C261.399 30.8167 261.282 31.33 261.236 31.75C261.282 32.4033 261.352 32.8467 261.446 33.08C261.586 33.2667 261.912 33.4767 262.426 33.71V34.06L263.336 34.55C264.082 34.83 264.642 35.1333 265.016 35.46H266.416L267.326 36.23L268.936 36.44L269.566 36.86L272.296 37.63L272.646 38.4L272.926 37.91C273.532 37.91 274.349 38.19 275.376 38.75L276.636 38.96L276.776 39.45H277.896L279.856 40.57C280.089 41.1767 280.602 41.7367 281.396 42.25L282.166 42.74L281.956 43.58C282.282 44.0467 282.446 44.5367 282.446 45.05V45.26Z" fill="#4075B0"/>
</svg>
